<mxfile host="Electron" modified="2024-05-12T14:05:38.464Z" agent="Mozilla/5.0 (Macintosh; Intel Mac OS X 10_15_7) AppleWebKit/537.36 (KHTML, like Gecko) draw.io/24.2.5 Chrome/120.0.6099.109 Electron/28.1.0 Safari/537.36" etag="ZYqxKagzCWt17bYrAtFl" version="24.2.5" type="device">
  <diagram name="Page-1" id="16e2658f-23c8-b752-8be9-c03fbebb8bbe">
    <mxGraphModel dx="1137" dy="835" grid="1" gridSize="10" guides="1" tooltips="1" connect="1" arrows="1" fold="1" page="1" pageScale="1" pageWidth="1100" pageHeight="850" background="none" math="1" shadow="0">
      <root>
        <mxCell id="0" />
        <mxCell id="1" parent="0" />
        <mxCell id="NBXwrLJA_q0yw7VPZrgO-19" style="edgeStyle=orthogonalEdgeStyle;rounded=0;orthogonalLoop=1;jettySize=auto;html=1;exitX=0;exitY=0.5;exitDx=0;exitDy=0;exitPerimeter=0;endArrow=oval;endFill=0;endSize=8;strokeWidth=2;startSize=8;jumpSize=6;" parent="1" source="a-Bfzto-w27DcwC_MsE2-3" edge="1">
          <mxGeometry relative="1" as="geometry">
            <mxPoint x="400" y="419.7619047619048" as="targetPoint" />
            <mxPoint x="430" y="420" as="sourcePoint" />
          </mxGeometry>
        </mxCell>
        <mxCell id="NBXwrLJA_q0yw7VPZrgO-2" value="$$jX_1$$" style="pointerEvents=1;verticalLabelPosition=top;shadow=0;dashed=0;align=center;html=1;verticalAlign=bottom;shape=mxgraph.electrical.inductors.inductor_3;labelPosition=center;fontSize=20;strokeWidth=2;" parent="1" vertex="1">
          <mxGeometry x="550" y="412" width="100" height="8" as="geometry" />
        </mxCell>
        <mxCell id="NBXwrLJA_q0yw7VPZrgO-5" style="edgeStyle=orthogonalEdgeStyle;rounded=0;orthogonalLoop=1;jettySize=auto;html=1;exitX=1;exitY=0.5;exitDx=0;exitDy=0;exitPerimeter=0;entryX=0;entryY=1;entryDx=0;entryDy=0;entryPerimeter=0;endArrow=none;endFill=0;strokeWidth=2;" parent="1" source="a-Bfzto-w27DcwC_MsE2-3" target="NBXwrLJA_q0yw7VPZrgO-2" edge="1">
          <mxGeometry relative="1" as="geometry">
            <mxPoint x="530" y="420" as="sourcePoint" />
          </mxGeometry>
        </mxCell>
        <mxCell id="NBXwrLJA_q0yw7VPZrgO-6" value="$$R&#39;_2$$" style="pointerEvents=1;verticalLabelPosition=top;shadow=0;dashed=0;align=center;html=1;verticalAlign=bottom;shape=mxgraph.electrical.resistors.resistor_1;labelPosition=center;fontSize=20;strokeWidth=2;" parent="1" vertex="1">
          <mxGeometry x="710" y="410" width="100" height="20" as="geometry" />
        </mxCell>
        <mxCell id="NBXwrLJA_q0yw7VPZrgO-7" value="$$jX&#39;_2$$" style="pointerEvents=1;verticalLabelPosition=top;shadow=0;dashed=0;align=center;html=1;verticalAlign=bottom;shape=mxgraph.electrical.inductors.inductor_3;labelPosition=center;fontSize=20;strokeWidth=2;" parent="1" vertex="1">
          <mxGeometry x="830" y="412" width="100" height="8" as="geometry" />
        </mxCell>
        <mxCell id="NBXwrLJA_q0yw7VPZrgO-8" style="edgeStyle=orthogonalEdgeStyle;rounded=0;orthogonalLoop=1;jettySize=auto;html=1;exitX=1;exitY=0.5;exitDx=0;exitDy=0;exitPerimeter=0;entryX=0;entryY=1;entryDx=0;entryDy=0;entryPerimeter=0;endArrow=none;endFill=0;strokeWidth=2;" parent="1" source="NBXwrLJA_q0yw7VPZrgO-6" target="NBXwrLJA_q0yw7VPZrgO-7" edge="1">
          <mxGeometry relative="1" as="geometry" />
        </mxCell>
        <mxCell id="NBXwrLJA_q0yw7VPZrgO-10" style="edgeStyle=orthogonalEdgeStyle;rounded=0;orthogonalLoop=1;jettySize=auto;html=1;exitX=1;exitY=1;exitDx=0;exitDy=0;exitPerimeter=0;entryX=0;entryY=0.5;entryDx=0;entryDy=0;entryPerimeter=0;endArrow=none;endFill=0;strokeWidth=2;" parent="1" source="NBXwrLJA_q0yw7VPZrgO-2" target="NBXwrLJA_q0yw7VPZrgO-6" edge="1">
          <mxGeometry relative="1" as="geometry">
            <Array as="points">
              <mxPoint x="680" y="420" />
              <mxPoint x="680" y="420" />
            </Array>
          </mxGeometry>
        </mxCell>
        <mxCell id="NBXwrLJA_q0yw7VPZrgO-14" style="edgeStyle=orthogonalEdgeStyle;rounded=0;orthogonalLoop=1;jettySize=auto;html=1;exitX=0;exitY=0.5;exitDx=0;exitDy=0;exitPerimeter=0;endArrow=oval;endFill=1;strokeWidth=2;startArrow=none;startFill=0;endSize=8;startSize=8;" parent="1" source="NBXwrLJA_q0yw7VPZrgO-11" edge="1">
          <mxGeometry relative="1" as="geometry">
            <mxPoint x="680.2222222222222" y="420" as="targetPoint" />
          </mxGeometry>
        </mxCell>
        <mxCell id="NBXwrLJA_q0yw7VPZrgO-11" value="$$R_m$$" style="pointerEvents=1;verticalLabelPosition=middle;shadow=0;dashed=0;align=right;html=1;verticalAlign=middle;shape=mxgraph.electrical.resistors.resistor_1;direction=south;labelPosition=left;fontSize=20;strokeWidth=2;" parent="1" vertex="1">
          <mxGeometry x="670" y="450" width="20" height="100" as="geometry" />
        </mxCell>
        <mxCell id="NBXwrLJA_q0yw7VPZrgO-18" style="edgeStyle=orthogonalEdgeStyle;rounded=0;orthogonalLoop=1;jettySize=auto;html=1;strokeWidth=2;endArrow=oval;endFill=1;endSize=8;startSize=8;" parent="1" edge="1">
          <mxGeometry relative="1" as="geometry">
            <mxPoint x="680.0952380952381" y="700" as="targetPoint" />
            <mxPoint x="680" y="670" as="sourcePoint" />
          </mxGeometry>
        </mxCell>
        <mxCell id="NBXwrLJA_q0yw7VPZrgO-12" value="$$jX_m$$" style="pointerEvents=1;verticalLabelPosition=middle;shadow=0;dashed=0;align=right;html=1;verticalAlign=middle;shape=mxgraph.electrical.inductors.inductor_3;direction=south;fontSize=20;labelPosition=left;strokeWidth=2;" parent="1" vertex="1">
          <mxGeometry x="680" y="570" width="8" height="100" as="geometry" />
        </mxCell>
        <mxCell id="NBXwrLJA_q0yw7VPZrgO-13" style="edgeStyle=orthogonalEdgeStyle;rounded=0;orthogonalLoop=1;jettySize=auto;html=1;exitX=0;exitY=1;exitDx=0;exitDy=0;exitPerimeter=0;entryX=1;entryY=0.5;entryDx=0;entryDy=0;entryPerimeter=0;endArrow=none;endFill=0;strokeWidth=2;" parent="1" source="NBXwrLJA_q0yw7VPZrgO-12" target="NBXwrLJA_q0yw7VPZrgO-11" edge="1">
          <mxGeometry relative="1" as="geometry" />
        </mxCell>
        <mxCell id="NBXwrLJA_q0yw7VPZrgO-17" style="edgeStyle=orthogonalEdgeStyle;rounded=0;orthogonalLoop=1;jettySize=auto;html=1;exitX=1;exitY=0.5;exitDx=0;exitDy=0;exitPerimeter=0;endArrow=oval;endFill=0;strokeWidth=2;endSize=8;" parent="1" source="NBXwrLJA_q0yw7VPZrgO-15" edge="1">
          <mxGeometry relative="1" as="geometry">
            <mxPoint x="400" y="700" as="targetPoint" />
            <Array as="points">
              <mxPoint x="960" y="700" />
            </Array>
          </mxGeometry>
        </mxCell>
        <mxCell id="NBXwrLJA_q0yw7VPZrgO-15" value="$$\frac{1-s}{s}\dot{R}&#39;_2$$" style="pointerEvents=1;verticalLabelPosition=middle;shadow=0;dashed=0;align=right;html=1;verticalAlign=middle;shape=mxgraph.electrical.resistors.resistor_1;direction=south;labelPosition=left;fontSize=20;strokeWidth=2;" parent="1" vertex="1">
          <mxGeometry x="950" y="510" width="20" height="100" as="geometry" />
        </mxCell>
        <mxCell id="NBXwrLJA_q0yw7VPZrgO-16" style="edgeStyle=orthogonalEdgeStyle;rounded=0;orthogonalLoop=1;jettySize=auto;html=1;exitX=1;exitY=1;exitDx=0;exitDy=0;exitPerimeter=0;entryX=0;entryY=0.5;entryDx=0;entryDy=0;entryPerimeter=0;strokeWidth=2;endArrow=none;endFill=0;" parent="1" source="NBXwrLJA_q0yw7VPZrgO-7" target="NBXwrLJA_q0yw7VPZrgO-15" edge="1">
          <mxGeometry relative="1" as="geometry">
            <Array as="points">
              <mxPoint x="960" y="420" />
            </Array>
          </mxGeometry>
        </mxCell>
        <mxCell id="NBXwrLJA_q0yw7VPZrgO-20" value="" style="edgeStyle=none;orthogonalLoop=1;jettySize=auto;html=1;rounded=0;strokeWidth=2;" parent="1" edge="1">
          <mxGeometry width="80" relative="1" as="geometry">
            <mxPoint x="400" y="440" as="sourcePoint" />
            <mxPoint x="400" y="680" as="targetPoint" />
            <Array as="points" />
          </mxGeometry>
        </mxCell>
        <mxCell id="a-Bfzto-w27DcwC_MsE2-6" value="$$\dot{U}_1$$" style="edgeLabel;html=1;align=left;verticalAlign=middle;resizable=0;points=[];fontSize=20;labelPosition=right;verticalLabelPosition=middle;labelBackgroundColor=none;" parent="NBXwrLJA_q0yw7VPZrgO-20" vertex="1" connectable="0">
          <mxGeometry relative="1" as="geometry">
            <mxPoint as="offset" />
          </mxGeometry>
        </mxCell>
        <mxCell id="NBXwrLJA_q0yw7VPZrgO-22" value="" style="edgeStyle=none;orthogonalLoop=1;jettySize=auto;rounded=0;labelPosition=left;verticalLabelPosition=top;align=right;verticalAlign=bottom;textShadow=0;html=1;labelBackgroundColor=none;strokeWidth=2;" parent="1" edge="1">
          <mxGeometry width="80" relative="1" as="geometry">
            <mxPoint x="480" y="460" as="sourcePoint" />
            <mxPoint x="600" y="460" as="targetPoint" />
            <Array as="points" />
          </mxGeometry>
        </mxCell>
        <mxCell id="a-Bfzto-w27DcwC_MsE2-4" value="&lt;font style=&quot;font-size: 20px;&quot;&gt;$$\dot{I}_1$$&lt;/font&gt;" style="edgeLabel;html=1;align=center;verticalAlign=top;resizable=0;points=[];fontSize=20;labelPosition=center;verticalLabelPosition=bottom;labelBackgroundColor=none;" parent="NBXwrLJA_q0yw7VPZrgO-22" vertex="1" connectable="0">
          <mxGeometry relative="1" as="geometry">
            <mxPoint y="-20" as="offset" />
          </mxGeometry>
        </mxCell>
        <mxCell id="NBXwrLJA_q0yw7VPZrgO-23" value="" style="edgeStyle=none;orthogonalLoop=1;jettySize=auto;html=1;rounded=0;fontSize=20;labelBackgroundColor=none;verticalAlign=middle;labelPosition=center;verticalLabelPosition=middle;align=center;strokeWidth=2;" parent="1" edge="1">
          <mxGeometry width="80" relative="1" as="geometry">
            <mxPoint x="880" y="460" as="sourcePoint" />
            <mxPoint x="760" y="460" as="targetPoint" />
            <Array as="points" />
          </mxGeometry>
        </mxCell>
        <mxCell id="a-Bfzto-w27DcwC_MsE2-5" value="$$\dot{I}&#39;_2$$" style="edgeLabel;html=1;align=center;verticalAlign=top;resizable=0;points=[];fontSize=20;labelPosition=center;verticalLabelPosition=bottom;labelBackgroundColor=none;" parent="NBXwrLJA_q0yw7VPZrgO-23" vertex="1" connectable="0">
          <mxGeometry relative="1" as="geometry">
            <mxPoint y="-20" as="offset" />
          </mxGeometry>
        </mxCell>
        <mxCell id="NBXwrLJA_q0yw7VPZrgO-24" value="" style="edgeStyle=none;orthogonalLoop=1;jettySize=auto;html=1;rounded=0;strokeWidth=2;" parent="1" edge="1">
          <mxGeometry width="80" relative="1" as="geometry">
            <mxPoint x="720" y="500" as="sourcePoint" />
            <mxPoint x="720" y="620" as="targetPoint" />
            <Array as="points" />
          </mxGeometry>
        </mxCell>
        <mxCell id="a-Bfzto-w27DcwC_MsE2-9" value="$$\dot{E}_1=\dot{E}&#39;_2$$" style="edgeLabel;html=1;align=left;verticalAlign=middle;resizable=0;points=[];fontSize=20;labelPosition=right;verticalLabelPosition=middle;labelBackgroundColor=none;" parent="NBXwrLJA_q0yw7VPZrgO-24" vertex="1" connectable="0">
          <mxGeometry relative="1" as="geometry">
            <mxPoint as="offset" />
          </mxGeometry>
        </mxCell>
        <mxCell id="a-Bfzto-w27DcwC_MsE2-3" value="$$R_1$$" style="pointerEvents=1;verticalLabelPosition=top;shadow=0;dashed=0;align=center;html=1;verticalAlign=bottom;shape=mxgraph.electrical.resistors.resistor_1;labelPosition=center;fontSize=20;strokeWidth=2;" parent="1" vertex="1">
          <mxGeometry x="430" y="410" width="100" height="20" as="geometry" />
        </mxCell>
        <mxCell id="a-Bfzto-w27DcwC_MsE2-7" value="" style="edgeStyle=none;orthogonalLoop=1;jettySize=auto;html=1;rounded=0;strokeWidth=2;" parent="1" edge="1">
          <mxGeometry width="80" relative="1" as="geometry">
            <mxPoint x="640" y="520" as="sourcePoint" />
            <mxPoint x="640" y="600" as="targetPoint" />
            <Array as="points" />
          </mxGeometry>
        </mxCell>
        <mxCell id="a-Bfzto-w27DcwC_MsE2-8" value="$$\dot{I}_0$$" style="edgeLabel;html=1;align=right;verticalAlign=middle;resizable=0;points=[];labelPosition=left;verticalLabelPosition=middle;fontSize=20;labelBackgroundColor=none;" parent="a-Bfzto-w27DcwC_MsE2-7" vertex="1" connectable="0">
          <mxGeometry relative="1" as="geometry">
            <mxPoint as="offset" />
          </mxGeometry>
        </mxCell>
      </root>
    </mxGraphModel>
  </diagram>
</mxfile>
